<svg xmlns="http://www.w3.org/2000/svg" viewBox="0 0 500 500"><defs><style>.cls-1{fill:none;}.cls-2{fill:#0d0d0d;}.cls-3{fill:#05f29b;}</style></defs><title>EmeraldNegativoPNGSVG</title><g id="Layer_2" data-name="Layer 2"><g id="Layer_1-2" data-name="Layer 1"><g id="EmeraldNegativoPNG"><rect class="cls-1" width="500" height="500"/><path class="cls-2" d="M182.82,142.52v29.85a1.7,1.7,0,0,0,1.71,1.71h36.15a5,5,0,0,1,5,5v20.29a5,5,0,0,1-5,5H184.53a1.7,1.7,0,0,0-1.71,1.71v30.07l40,40H239a5,5,0,0,1,5,5v20.25a5,5,0,0,1-5,5H212.27a5,5,0,0,1-3.51-1.48L154,250.12a4.91,4.91,0,0,1-1.48-3.51V132.08a4.8,4.8,0,0,1,1.48-3.51l54.73-54.8a5.05,5.05,0,0,1,3.51-1.45H239a5,5,0,0,1,5,5V97.57a5,5,0,0,1-5,5H222.78Z"/><path class="cls-3" d="M347.75,132.05V246.64a5.09,5.09,0,0,1-1.44,3.51l-54.77,54.74a4.91,4.91,0,0,1-3.52,1.48H261.33a5,5,0,0,1-5-5V281.12a5,5,0,0,1,5-5h16.19L317,236.63a1.67,1.67,0,0,0,.49-1.19v-92.2A1.67,1.67,0,0,0,317,142l-39-39a1.71,1.71,0,0,0-1.21-.49h-15.5a5,5,0,0,1-5-5V77.31a5,5,0,0,1,5-5H288a5,5,0,0,1,3.52,1.45l54.77,54.76A5,5,0,0,1,347.75,132.05Z"/><path class="cls-2" d="M110,382.9v10.84h27.3v10.52H110v11.95h30.14v10.52H98.31V372.38h41.85V382.9Z"/><path class="cls-2" d="M212.86,400.7v25.95H201.79v-24c0-4.75-3-8.07-7.2-8.07-4.67,0-7.91,3.09-7.91,7.44v24.6H175.52v-24c0-4.75-2.92-8.07-7.2-8.07-4.66,0-7.91,3.09-7.91,7.44v24.6H148.86V385.83h11.55v5.38c2-3.88,6.09-6.33,11.16-6.33a14.57,14.57,0,0,1,12.73,7c2.46-4.35,7.36-7,13.45-7C206.3,384.88,212.86,391.45,212.86,400.7Z"/><path class="cls-2" d="M250.75,414.71l6.49,6.64c-3.64,3.8-10.68,6.33-16.69,6.33-12.19,0-21.92-8.94-21.92-21.52a20.8,20.8,0,0,1,21.28-21.28c12.82,0,20.57,9.26,20.57,24.45H229.63c1,5.53,4.9,9.41,10.52,9.41A16.91,16.91,0,0,0,250.75,414.71Zm-21-12.27h19.7c-.95-5.06-4.2-8.62-9.42-8.62S231,397.22,229.71,402.44Z"/><path class="cls-2" d="M292.12,384.88v9.73c-8.54,0-14,4.91-14,12.58v19.54H266.57v-40.9h11.55v7.67A15.32,15.32,0,0,1,292.12,384.88Z"/><path class="cls-2" d="M330.41,402.28v24.45H319.26v-4.11a16.63,16.63,0,0,1-12.11,5.06c-8.7,0-15.34-5.22-15.34-13.05,0-8.07,7.51-13.61,16.93-13.61a28.47,28.47,0,0,1,10.52,2.13v-.87c0-4.35-2.77-8.14-9.5-8.14a23.43,23.43,0,0,0-10.6,2.92l-3.87-7.67a37.47,37.47,0,0,1,17.08-4.51C323.05,384.88,330.41,391.6,330.41,402.28Zm-11.15,11.55v-3.71a24.5,24.5,0,0,0-8.86-1.59c-4.2,0-7.6,2.46-7.6,5.78s3,5.38,7,5.38C314.19,419.69,318.39,417.63,319.26,413.83Z"/><path class="cls-2" d="M338.87,371.43h11.55v55.3H338.87Z"/><path class="cls-2" d="M401.69,371.43v55.3H390.14V421a17.05,17.05,0,0,1-13.77,6.73c-10.92,0-18.75-8.86-18.75-21.44s7.83-21.36,18.75-21.36a17.07,17.07,0,0,1,13.77,6.72V371.43Zm-11.55,34.81c0-6.8-4.28-11.63-10.45-11.63-6.33,0-10.84,4.83-10.84,11.63S373.36,418,379.69,418C385.86,418,390.14,413.12,390.14,406.24Z"/></g></g></g></svg>