<svg xmlns="http://www.w3.org/2000/svg" viewBox="0 0 494.82 494.82"><defs><style>.cls-1{fill:none;}.cls-2{fill:#0d0d0d;}.cls-3{fill:#05f29b;}</style></defs><title>SimboloNegativoPNGSVG</title><g id="Layer_2" data-name="Layer 2"><g id="Layer_1-2" data-name="Layer 1"><g id="SimboloNegativoPNG"><rect class="cls-1" width="494.82" height="494.82" rx="55.77"/><path class="cls-2" d="M141.23,173.57v47.06a2.67,2.67,0,0,0,2.69,2.7h57a7.9,7.9,0,0,1,7.87,7.87v32a7.9,7.9,0,0,1-7.87,7.87h-57a2.67,2.67,0,0,0-2.69,2.69V321.2l63,63.06h25.58a7.87,7.87,0,0,1,7.87,7.88v31.94a7.87,7.87,0,0,1-7.87,7.88H187.68a7.81,7.81,0,0,1-5.54-2.33L95.82,343.25a7.79,7.79,0,0,1-2.33-5.54V157.1a7.64,7.64,0,0,1,2.33-5.54l86.32-86.43a8,8,0,0,1,5.54-2.27h42.15a7.87,7.87,0,0,1,7.87,7.87v32a7.87,7.87,0,0,1-7.87,7.87H204.25Z"/><path class="cls-3" d="M401.33,157.05V337.76a8,8,0,0,1-2.28,5.55l-86.37,86.32a7.72,7.72,0,0,1-5.54,2.33H265a7.87,7.87,0,0,1-7.87-7.88V392.14a7.87,7.87,0,0,1,7.87-7.88h25.53L352.86,322a2.62,2.62,0,0,0,.78-1.86V174.71a2.66,2.66,0,0,0-.78-1.92L291.4,111.32a2.65,2.65,0,0,0-1.92-.77H265a7.87,7.87,0,0,1-7.87-7.87V70.73A7.87,7.87,0,0,1,265,62.86h42.1a7.92,7.92,0,0,1,5.54,2.27l86.37,86.38A7.8,7.8,0,0,1,401.33,157.05Z"/></g></g></g></svg>